<?xml version="1.0" encoding="UTF-8" standalone="no"?>
<svg
   width="64"
   height="64"
   version="1.1"
   id="svg347"
   sodipodi:docname="polywork.svg"
   inkscape:version="1.2 (dc2aedaf03, 2022-05-15)"
   xmlns:inkscape="http://www.inkscape.org/namespaces/inkscape"
   xmlns:sodipodi="http://sodipodi.sourceforge.net/DTD/sodipodi-0.dtd"
   xmlns="http://www.w3.org/2000/svg"
   xmlns:svg="http://www.w3.org/2000/svg">
  <defs
     id="defs351" />
  <sodipodi:namedview
     id="namedview349"
     pagecolor="#ffffff"
     bordercolor="#666666"
     borderopacity="1.0"
     inkscape:showpageshadow="2"
     inkscape:pageopacity="0.0"
     inkscape:pagecheckerboard="0"
     inkscape:deskcolor="#d1d1d1"
     showgrid="false"
     inkscape:zoom="3.2594548"
     inkscape:cx="24.390582"
     inkscape:cy="31.907176"
     inkscape:window-width="2560"
     inkscape:window-height="1387"
     inkscape:window-x="2552"
     inkscape:window-y="-8"
     inkscape:window-maximized="1"
     inkscape:current-layer="svg347" />
  <path
     class="st0"
     d="m 23.097965,60.449527 v -17.838 h 18.6588 v 7.2972 c -0.0036,2.7972 -1.1196,5.4792 -3.0996,7.4556 -1.98,1.9764 -4.6656,3.0852 -7.4628,3.0852 z"
     id="path355"
     style="fill:#8bc9ae;stroke-width:0.36" />
  <path
     class="st1"
     d="m 31.158365,61.961527 h -9.5184 v -20.862 h 21.5712 v 8.8092 c -0.0036,3.1968 -1.278,6.2604 -3.5352,8.5176 -2.2572,2.2572 -5.3208,3.528 -8.5176,3.5352 z m -6.5124,-3.024 h 6.5124 c 2.3976,0 4.698,-0.9504 6.3936,-2.6424 1.6956,-1.692 2.6532,-3.9888 2.6568,-6.3864 v -5.7852 h -15.5628 z"
     id="path357"
     style="fill:#2f2f3a;stroke-width:0.36" />
  <path
     class="st2"
     d="m 42.206765,42.107527 v -18.9216 h 18.6588 v 8.3592 c 0.0036,1.386 -0.27,2.7576 -0.7956,4.0392 -0.5292,1.2816 -1.3032,2.4444 -2.286,3.4272 -0.9792,0.9828 -2.142,1.7604 -3.4236,2.2896 -1.2816,0.5292 -2.6532,0.8028 -4.0392,0.8028 h -8.1144 z"
     id="path359"
     style="fill:#f2c84a;stroke-width:0.36" />
  <path
     class="st1"
     d="m 50.231165,43.615927 h -9.5364 v -21.9456 h 21.5892 v 9.8712 c 0,3.2004 -1.2708,6.2676 -3.528,8.532 -2.2608,2.2644 -5.328,3.5388 -8.5248,3.5424 z m -6.5124,-3.0204 h 6.5124 c 2.3976,-0.0036 4.6944,-0.9612 6.3864,-2.6568 1.692,-1.6956 2.6424,-3.996 2.6424,-6.3936 v -6.9048 h -15.5448 v 15.9552 z"
     id="path361"
     style="fill:#2f2f3a;stroke-width:0.36" />
  <path
     class="st3"
     d="m 41.702765,23.182327 h -18.5688 v 18.9216 h 18.5688 z"
     id="path363"
     style="fill:#b384b9;stroke-width:0.36" />
  <path
     class="st1"
     d="m 43.214765,43.615927 h -21.5712 v -21.9456 h 21.5712 z m -18.6624,-3.0204 h 15.5628 v -15.9552 h -15.4692 z"
     id="path365"
     style="fill:#2f2f3a;stroke-width:0.36" />
  <path
     class="st4"
     d="m 4.0827652,22.771927 v -8.4708 c 0,-2.7972 1.1124,-5.4791995 3.0888,-7.4555995 1.9764,-1.9764 4.6583998,-3.0888 7.4555998,-3.0888 h 8.0244 V 22.771927 Z"
     id="path367"
     style="fill:#4bb485;stroke-width:0.36" />
  <path
     class="st1"
     d="M 24.163565,24.190327 H 2.5743652 v -9.8892 c 0.0036,-3.1968 1.278,-6.2603995 3.5352,-8.5175995 2.2608,-2.2608 5.3243998,-3.5316 8.5175998,-3.5352 h 9.5364 z m -18.5687998,-3.024 H 21.233165 V 5.2687275 h -6.606 c -2.394,0 -4.6943998,0.9504 -6.3863998,2.646 -1.692,1.6956 -2.646,3.9923995 -2.646,6.3863995 z"
     id="path369"
     style="fill:#2f2f3a;stroke-width:0.36" />
  <path
     class="st5"
     d="M 42.206765,22.771927 V 3.7567275 h 8.0244 c 2.7972,0 5.4792,1.1124 7.4556,3.0888 1.9764,1.9764 3.0888,4.6583995 3.0888,7.4555995 v 8.4708 z"
     id="path371"
     style="fill:#ee7375;stroke-width:0.36" />
  <path
     class="st1"
     d="m 62.283965,24.190327 h -21.5892 V 2.2447275 h 9.5364 c 3.1968,0.0036 6.2604,1.278 8.5176,3.5352 2.2608,2.2608 3.5316,5.3243995 3.5352,8.5175995 z m -18.5652,-3.024 h 15.5448 v -6.8688 c 0,-2.394 -0.9504,-4.6943995 -2.646,-6.3863995 -1.6956,-1.692 -3.9924,-2.646 -6.3864,-2.646 h -6.5124 z"
     id="path373"
     style="fill:#2f2f3a;stroke-width:0.36" />
  <path
     class="st6"
     d="m 41.702765,3.7567275 h -18.5688 V 22.678327 h 18.5688 z"
     id="path375"
     style="fill:#5e6eb3;stroke-width:0.36" />
  <path
     class="st1"
     d="m 43.214765,24.190327 h -21.5712 V 2.2447275 h 21.5712 z m -18.6624,-3.024 h 15.5628 V 5.2687275 h -15.4692 z"
     id="path377"
     style="fill:#2f2f3a;stroke-width:0.36" />
  <path
     class="st7"
     d="m 4.0827652,49.905127 v -7.2972 H 22.741565 v 17.838 h -8.118 c -2.7972,0 -5.4791998,-1.1124 -7.4555998,-3.0888 -1.9728,-1.9728 -3.0852,-4.6548 -3.0852,-7.452 z"
     id="path379"
     style="fill:#41bede;stroke-width:0.36" />
  <path
     class="st1"
     d="m 24.163565,61.961527 h -9.5364 c -3.1968,-0.0036 -6.2603998,-1.278 -8.5175998,-3.5352 -2.2608,-2.2608 -3.5316,-5.3244 -3.5352,-8.5176 v -8.8092 H 24.163565 Z M 5.5947652,44.119927 v 5.7852 c 0,2.394 0.9504,4.6944 2.646,6.3864 1.692,1.692 3.9923998,2.646 6.3863998,2.646 h 6.606 v -14.8176 z"
     id="path381"
     style="fill:#2f2f3a;stroke-width:0.36" />
  <path
     class="st8"
     d="M 22.651565,23.182327 H 4.0827652 v 18.9216 H 22.651565 Z"
     id="path383"
     style="fill:#f39a4b;stroke-width:0.36" />
  <path
     class="st1"
     d="M 24.163565,43.615927 H 2.5743652 v -21.9456 H 24.163565 Z M 5.5947652,40.595527 H 21.233165 v -15.9552 H 5.5947652 Z"
     id="path385"
     style="fill:#2f2f3a;stroke-width:0.36" />
</svg>
